<svg width="128" height="128" viewBox="0 0 128 128" fill="none" xmlns="http://www.w3.org/2000/svg">
<g clip-path="url(#clip0_49_11)">
<circle cx="64" cy="64" r="64" transform="rotate(-180 64 64)" fill="white"/>
<path d="M64 128C76.658 128 89.0317 124.246 99.5565 117.214C110.081 110.182 118.284 100.186 123.128 88.4917C127.972 76.7973 129.24 63.929 126.77 51.5142C124.301 39.0994 118.205 27.6957 109.255 18.7452C100.304 9.7946 88.9005 3.6992 76.4857 1.22974C64.071 -1.23971 51.2027 0.0277033 39.5082 4.87171C27.8138 9.71572 17.8183 17.9188 10.7859 28.4435C3.7535 38.9683 -3.05176e-05 51.342 -3.05176e-05 64C0.018498 80.9682 6.76729 97.2361 18.7656 109.234C30.7639 121.233 47.0318 127.981 64 128ZM64 6C75.4713 6 86.685 9.40164 96.223 15.7748C105.761 22.1479 113.195 31.2062 117.585 41.8044C121.975 52.4025 123.123 64.0643 120.886 75.3152C118.648 86.5661 113.124 96.9007 105.012 105.012C96.9007 113.124 86.5661 118.648 75.3152 120.886C64.0643 123.123 52.4024 121.975 41.8043 117.585C31.2062 113.195 22.1479 105.761 15.7747 96.2231C9.40161 86.685 5.99997 75.4713 5.99997 64C6.01849 48.6231 12.1351 33.8814 23.0082 23.0083C33.8813 12.1352 48.6231 6.01852 64 6Z" fill="#0A0909"/>
<path d="M53.88 92.12C54.4425 92.6818 55.205 92.9973 56 92.9973C56.795 92.9973 57.5575 92.6818 58.12 92.12L84.12 66.12C84.6818 65.5575 84.9973 64.795 84.9973 64C84.9973 63.205 84.6818 62.4425 84.12 61.88L58.12 35.88C57.5513 35.35 56.7991 35.0615 56.0219 35.0753C55.2447 35.089 54.5031 35.4038 53.9535 35.9535C53.4038 36.5031 53.089 37.2447 53.0753 38.0219C53.0615 38.7991 53.35 39.5513 53.88 40.12L77.76 64L53.88 87.88C53.3181 88.4425 53.0026 89.205 53.0026 90C53.0026 90.795 53.3181 91.5575 53.88 92.12Z" fill="black"/>
</g>
<defs>
<clipPath id="clip0_49_11">
<rect width="128" height="128" fill="white" transform="matrix(-1 0 0 -1 128 128)"/>
</clipPath>
</defs>
</svg>
